<?xml version="1.0" encoding="UTF-8"?>
<svg width="950px" height="901px" viewBox="0 0 950 901" version="1.1" xmlns="http://www.w3.org/2000/svg" xmlns:xlink="http://www.w3.org/1999/xlink">
    <title>love-hand-drawn-heart-symbol-outline</title>
    <defs>
        <filter id="filter-1">
            <feColorMatrix in="SourceGraphic" type="matrix" values="0 0 0 0 0.201907 0 0 0 0 0.628253 0 0 0 0 0.219673 0 0 0 1.000000 0"></feColorMatrix>
        </filter>
    </defs>
    <g id="Page-1" stroke="none" stroke-width="1" fill="none" fill-rule="evenodd">
        <g id="love-hand-drawn-heart-symbol-outline" transform="translate(-37.000000, -61.000000)" filter="url(#filter-1)">
            <g transform="translate(37.000000, 61.000000)">
                <path d="M735.875638,11.5176397 C727.878307,11.5176397 719.781225,11.8785258 711.814586,12.5983782 C629.541249,20.0464519 554.526703,70.0426063 499.88051,153.649153 C436.485018,60.0817676 331.696767,0 230.902385,0 C208.751945,0 186.804843,2.86597268 165.680685,8.524973 C100.401437,26.0106697 47.1766941,74.6419838 19.6684832,141.970266 C-10.8169065,216.560421 -5.57039623,303.933236 33.3650401,369.988819 C86.8372422,460.715187 178.515932,516.091998 267.163732,569.635586 C312.698069,597.153147 359.790055,625.578682 400.177633,658.164004 C412.2072,667.854178 427.319451,680.487109 440.285141,694.250689 C423.926005,710.383063 391.579878,764.005354 391.269116,764.648422 C381.104122,786.044358 367.140924,831.283727 379.277915,865.128311 C384.464958,879.565672 393.78207,890.025609 407.000974,896.214421 C413.780194,899.381772 420.914297,901 428.196108,901 C459.504442,901 488.50316,871.307525 507.333048,846.412147 C541.766269,800.831087 546.920702,752.988732 522.637128,704.144341 C564.298448,666.43175 609.623693,631.377813 653.477612,597.454525 C728.921854,539.106162 806.927007,478.757569 868.998882,402.910073 C899.323135,365.844388 993.079328,235.49734 926.812164,114.061106 C891.778519,49.8502643 820.397206,11.5176397 735.875638,11.5176397 Z M464.699158,795.724934 C458.397591,807.772385 452.036557,816.470123 445.412718,822.025464 C446.745926,804.128972 453.561594,786.658632 457.939121,777.047161 C459.166823,774.348194 467.217867,761.889948 473.007252,753.556935 C474.825786,767.729391 472.082638,781.610066 464.699158,795.724934 Z M389.314383,124.760993 C408.733185,140.772432 425.901838,158.858965 440.34269,178.481184 C442.061474,180.821185 444.701034,185.232441 447.776045,190.338594 C465.499083,219.885179 484.543819,248.733028 505.159631,248.733028 C515.387928,248.733028 524.048986,241.538342 530.895347,227.331333 C574.622659,136.716303 644.398368,82.6908943 727.362288,75.1948305 C732.184857,74.7514014 737.072648,74.5460034 741.904809,74.5460034 C805.378951,74.5460034 861.195297,111.724944 880.811683,167.051846 C906.654822,239.98922 865.751225,326.421427 755.766338,431.278019 C708.541991,476.31199 656.163212,516.804172 605.52048,555.971826 C565.767855,586.697049 524.699285,618.455021 486.247257,652.27849 C451.666328,613.92283 406.308473,581.792455 370.309931,557.881834 C348.953661,543.688263 325.870934,529.807588 301.435816,515.10916 C181.301282,442.859006 45.1548214,360.968587 66.6185154,208.490395 C78.887868,121.307621 143.733584,64.9748448 231.821244,64.9748448 C238.293538,64.9748448 244.917377,65.2819819 251.522033,65.9192913 C299.960655,70.5301864 348.892276,91.4327829 389.314383,124.760993 Z" id="Shape" fill="#000000" fill-rule="nonzero"></path>
            </g>
        </g>
    </g>
</svg>