<svg id="Capa_1" enable-background="new 0 0 512 512" height="512" viewBox="0 0 512 512" width="512" xmlns="http://www.w3.org/2000/svg"><g><g><path d="m162.67 373.095c6.996 0 21.863 4.711 37.78 10.628 1.31.487 2.705-.485 2.705-1.883v-56.934c0-8.318-6.743-15.062-15.062-15.062h-56.003c-1.394 0-2.365-1.388-1.886-2.697 5.503-15.015 9.76-28.777 9.76-35.427 0-18.812-15.25-34.062-34.062-34.062s-34.062 15.25-34.062 34.062c0 6.65 4.256 20.412 9.76 35.427.48 1.309-.491 2.697-1.886 2.697h-56.122c-8.318 0-15.062 6.743-15.062 15.062v164.501c0 8.318 6.743 15.062 15.062 15.062h164.501c8.318 0 15.062-6.743 15.062-15.062v-56.934c0-1.398-1.394-2.37-2.705-1.883-15.917 5.918-30.784 10.628-37.78 10.628-18.812 0-34.062-15.25-34.062-34.062.001-18.811 15.25-34.061 34.062-34.061z" fill="#cbafea"/></g><g><path d="m241.316 70.841c-6.65 0-20.412 4.256-35.427 9.76-1.309.48-2.697-.491-2.697-1.886v-56.122c0-8.318-6.743-15.062-15.062-15.062h-164.501c-8.318 0-15.062 6.743-15.062 15.062v164.501c0 8.318 6.743 15.062 15.062 15.062h56.934c1.398 0 2.37-1.394 1.883-2.705-5.918-15.917-10.628-30.784-10.628-37.78 0-18.812 15.25-34.062 34.062-34.062s34.062 15.25 34.062 34.062c0 6.996-4.711 21.863-10.628 37.78-.487 1.31.485 2.705 1.883 2.705h56.934c8.318 0 15.062-6.743 15.062-15.062v-56.004c0-1.394 1.388-2.365 2.697-1.886 15.015 5.503 28.777 9.76 35.427 9.76 18.812 0 34.062-15.25 34.062-34.062-.002-18.811-15.252-34.061-34.063-34.061z" fill="#aad880"/></g><g><path d="m488.407 7.531h-164.501c-8.318 0-15.062 6.743-15.062 15.062v56.934c0 1.398 1.394 2.37 2.705 1.883 15.917-5.918 30.784-10.628 37.78-10.628 18.812 0 34.062 15.25 34.062 34.062s-15.25 34.062-34.062 34.062c-6.996 0-21.863-4.711-37.78-10.628-1.31-.487-2.705.485-2.705 1.883v56.934c0 8.318 6.743 15.062 15.062 15.062h56.003c1.394 0 2.365 1.388 1.886 2.697-5.503 15.015-9.76 28.777-9.76 35.427 0 18.812 15.25 34.062 34.062 34.062s34.062-15.25 34.062-34.062c0-6.65-4.256-20.412-9.76-35.427-.48-1.309.491-2.697 1.886-2.697h56.123c8.318 0 15.062-6.743 15.062-15.062v-164.502c-.001-8.319-6.745-15.062-15.063-15.062z" fill="#ffd064"/></g><g><path d="m431.436 309.845c-1.398 0-2.37 1.394-1.883 2.705 5.918 15.917 10.628 30.784 10.628 37.78 0 18.812-15.25 34.062-34.062 34.062s-34.062-15.25-34.062-34.062c0-6.996 4.711-21.863 10.628-37.78.487-1.31-.485-2.705-1.883-2.705h-56.934c-8.318 0-15.062 6.743-15.062 15.062v56.003c0 1.394-1.388 2.365-2.697 1.886-15.015-5.503-28.777-9.76-35.427-9.76-18.812 0-34.062 15.25-34.062 34.062s15.25 34.062 34.062 34.062c6.65 0 20.412-4.256 35.427-9.76 1.309-.48 2.697.491 2.697 1.886v56.122c0 8.318 6.743 15.062 15.062 15.062h164.502c8.318 0 15.062-6.743 15.062-15.062v-164.502c0-8.318-6.743-15.062-15.062-15.062h-56.934z" fill="#9dc6fb"/></g><g><g><path d="m200.45 430.59c-7.742 2.878-15.227 5.465-21.687 7.369v27.056c0 8.318-6.743 15.062-15.062 15.062h-155.17v9.33c0 8.318 6.743 15.062 15.062 15.062h164.501c8.318 0 15.062-6.743 15.062-15.062v-56.934c-.001-1.398-1.396-2.37-2.706-1.883z" fill="#bc95e2"/></g><g><path d="m188.093 309.845h-9.33v66.509c6.46 1.904 13.945 4.491 21.687 7.369 1.31.487 2.705-.485 2.705-1.883v-56.934c0-8.318-6.744-15.061-15.062-15.061z" fill="#bc95e2"/></g></g><g><g><path d="m249.894 71.932c.711 2.741 1.091 5.615 1.091 8.578 0 18.812-15.25 34.062-34.062 34.062-6.65 0-20.412-4.256-35.427-9.76-1.309-.48-2.697.491-2.697 1.886v56.003c0 8.318-6.743 15.062-15.062 15.062h-27.056c-1.904 6.46-4.491 13.945-7.369 21.687-.487 1.31.485 2.705 1.883 2.705h56.934c8.318 0 15.062-6.743 15.062-15.062v-56.003c0-1.394 1.388-2.365 2.697-1.886 15.015 5.503 28.777 9.76 35.427 9.76 18.812 0 34.062-15.25 34.062-34.062 0-15.848-10.824-29.166-25.483-32.97z" fill="#80cb8e"/></g></g><g><g><path d="m488.407 7.531h-9.33v155.17c0 8.318-6.743 15.062-15.062 15.062h-56.122c-1.394 0-2.366 1.388-1.886 2.697 5.503 15.015 9.76 28.777 9.76 35.427 0 18.812-15.25 34.062-34.062 34.062-2.963 0-5.838-.38-8.579-1.091 3.803 14.659 17.122 25.483 32.971 25.483 18.812 0 34.062-15.25 34.062-34.062 0-6.65-4.256-20.412-9.76-35.427-.48-1.309.491-2.697 1.886-2.697h56.122c8.318 0 15.062-6.743 15.062-15.062v-164.5c0-8.319-6.744-15.062-15.062-15.062z" fill="#ecbe6b"/></g></g><g><g><path d="m488.37 309.845h-9.33v155.17c0 8.318-6.743 15.062-15.062 15.062h-155.17v9.33c0 8.318 6.743 15.062 15.062 15.062h164.5c8.318 0 15.062-6.743 15.062-15.062v-164.501c0-8.318-6.744-15.061-15.062-15.061z" fill="#80b4fb"/></g></g><g><path d="m188.094 512h-164.501c-12.457 0-22.593-10.135-22.593-22.593v-164.5c0-12.457 10.135-22.593 22.593-22.593h48.284c-6.72-19.362-7.567-26.705-7.567-30.593 0-22.934 18.659-41.592 41.592-41.592s41.592 18.659 41.592 41.592c0 3.89-.846 11.234-7.566 30.593h48.165c12.457 0 22.592 10.135 22.592 22.593v56.934c0 3.121-1.53 6.049-4.092 7.832-2.561 1.781-5.838 2.197-8.762 1.112-23.773-8.838-32.234-10.158-35.161-10.158-14.629 0-26.531 11.901-26.531 26.531s11.901 26.531 26.531 26.531c2.927 0 11.388-1.32 35.156-10.157 2.924-1.086 6.2-.673 8.764 1.109 2.564 1.783 4.095 4.711 4.095 7.834v56.934c0 12.456-10.134 22.591-22.591 22.591zm-164.501-194.624c-4.153 0-7.531 3.378-7.531 7.531v164.501c0 4.153 3.378 7.531 7.531 7.531h164.501c4.152 0 7.53-3.378 7.53-7.531v-49.052c-21.073 7.46-28.874 8.394-32.953 8.394-22.934 0-41.592-18.659-41.592-41.592 0-22.934 18.659-41.592 41.592-41.592 4.079 0 11.881.934 32.953 8.394v-49.052c0-4.153-3.378-7.531-7.53-7.531h-56.004c-3.112 0-6.035-1.524-7.819-4.076-1.783-2.551-2.208-5.82-1.137-8.743 8.092-22.075 9.3-30.048 9.3-32.836 0-14.629-11.901-26.531-26.531-26.531s-26.531 11.901-26.531 26.531c0 2.787 1.208 10.758 9.3 32.835 1.072 2.919.647 6.188-1.136 8.741-1.783 2.554-4.707 4.079-7.821 4.079h-56.122z"/></g><g><path d="m188.13 209.686h-56.934c-3.123 0-6.052-1.532-7.835-4.096-1.782-2.564-2.196-5.84-1.107-8.765 8.836-23.766 10.156-32.227 10.156-35.154 0-14.629-11.901-26.531-26.531-26.531s-26.531 11.901-26.531 26.531c0 2.927 1.32 11.388 10.157 35.156 1.087 2.923.674 6.199-1.108 8.763-1.783 2.564-4.712 4.096-7.835 4.096h-56.933c-12.457 0-22.593-10.135-22.593-22.593v-164.5c0-12.458 10.136-22.593 22.593-22.593h36.434c4.16 0 7.531 3.371 7.531 7.531s-3.371 7.531-7.531 7.531h-36.434c-4.153 0-7.531 3.378-7.531 7.531v164.501c0 4.153 3.378 7.531 7.531 7.531h49.052c-7.46-21.074-8.394-28.874-8.394-32.953 0-22.934 18.659-41.592 41.592-41.592s41.592 18.659 41.592 41.592c0 4.079-.934 11.881-8.394 32.953h49.052c4.153 0 7.531-3.378 7.531-7.531v-56.004c0-3.113 1.524-6.036 4.076-7.819 2.551-1.784 5.821-2.209 8.741-1.137 22.081 8.092 30.052 9.3 32.838 9.3 14.629 0 26.531-11.901 26.531-26.531s-11.901-26.531-26.531-26.531c-2.786 0-10.757 1.208-32.836 9.3-2.925 1.069-6.191.645-8.743-1.137-2.552-1.783-4.076-4.706-4.076-7.819v-56.123c0-4.153-3.378-7.531-7.531-7.531h-92.577c-4.16 0-7.531-3.371-7.531-7.531s3.371-7.531 7.531-7.531h92.578c12.457 0 22.593 10.135 22.593 22.593v48.285c19.362-6.721 26.705-7.567 30.593-7.567 22.934 0 41.592 18.659 41.592 41.592s-18.659 41.592-41.592 41.592c-3.888 0-11.231-.846-30.593-7.567v48.165c0 12.458-10.136 22.593-22.593 22.593z"/></g><g><path d="m406.097 281.872c-22.934 0-41.592-18.659-41.592-41.592 0-3.888.846-11.232 7.567-30.593h-48.165c-12.457 0-22.593-10.135-22.593-22.593v-56.934c0-3.122 1.531-6.05 4.094-7.832 2.563-1.783 5.838-2.197 8.763-1.112 23.771 8.838 32.232 10.158 35.159 10.158 14.629 0 26.531-11.901 26.531-26.531s-11.901-26.531-26.531-26.531c-2.927 0-11.388 1.32-35.156 10.157-2.921 1.087-6.199.674-8.763-1.108-2.564-1.783-4.096-4.712-4.096-7.835v-56.933c-.001-12.458 10.134-22.593 22.591-22.593h164.501c12.458 0 22.593 10.135 22.593 22.593v112.318c0 4.16-3.371 7.531-7.531 7.531s-7.531-3.371-7.531-7.531v-112.318c0-4.153-3.378-7.531-7.531-7.531h-164.501c-4.153 0-7.531 3.378-7.531 7.531v49.052c21.074-7.46 28.874-8.394 32.953-8.394 22.934 0 41.592 18.659 41.592 41.592s-18.659 41.592-41.592 41.592c-4.079 0-11.881-.934-32.953-8.394v49.052c0 4.153 3.378 7.531 7.531 7.531h56.003c3.113 0 6.035 1.524 7.819 4.076 1.783 2.551 2.208 5.82 1.137 8.743-8.092 22.078-9.3 30.049-9.3 32.836 0 14.629 11.901 26.531 26.531 26.531s26.531-11.901 26.531-26.531c0-2.787-1.208-10.758-9.3-32.835-1.071-2.924-.645-6.192 1.137-8.744 1.783-2.552 4.706-4.076 7.819-4.076h56.123c4.153 0 7.531-3.378 7.531-7.531v-16.381c0-4.16 3.371-7.531 7.531-7.531s7.531 3.371 7.531 7.531v16.381c0 12.457-10.135 22.593-22.593 22.593h-48.285c6.72 19.361 7.567 26.705 7.567 30.593.001 22.934-18.657 41.593-41.591 41.593z"/></g><g><path d="m488.37 512h-48.562c-4.16 0-7.531-3.371-7.531-7.531s3.371-7.531 7.531-7.531h48.562c4.153 0 7.531-3.378 7.531-7.531v-164.5c0-4.153-3.378-7.531-7.531-7.531h-49.051c7.459 21.076 8.393 28.875 8.393 32.953 0 22.934-18.659 41.592-41.592 41.592-22.934 0-41.592-18.659-41.592-41.592 0-4.079.934-11.881 8.394-32.953h-49.052c-4.153 0-7.531 3.378-7.531 7.531v56.003c0 3.113-1.524 6.036-4.076 7.819-2.549 1.784-5.818 2.211-8.742 1.137-22.08-8.092-30.05-9.3-32.836-9.3-14.629 0-26.531 11.901-26.531 26.531 0 14.629 11.901 26.531 26.531 26.531 2.786 0 10.756-1.208 32.835-9.3 2.922-1.071 6.191-.646 8.743 1.137s4.076 4.706 4.076 7.819v56.123c0 4.153 3.378 7.531 7.531 7.531h78.723c4.16 0 7.531 3.371 7.531 7.531s-3.372 7.531-7.532 7.531h-78.723c-12.457 0-22.593-10.135-22.593-22.593v-48.285c-19.362 6.721-26.704 7.567-30.592 7.567-22.934 0-41.592-18.659-41.592-41.592 0-22.934 18.659-41.592 41.592-41.592 3.888 0 11.23.846 30.592 7.567v-48.165c0-12.457 10.135-22.593 22.593-22.593h56.935c3.123 0 6.051 1.532 7.834 4.096 1.781 2.563 2.196 5.84 1.107 8.765-8.836 23.766-10.156 32.227-10.156 35.154 0 14.629 11.901 26.531 26.531 26.531s26.531-11.901 26.531-26.531c0-2.927-1.319-11.386-10.156-35.156-1.087-2.923-.674-6.2 1.108-8.763 1.783-2.565 4.711-4.096 7.834-4.096h56.934c12.457 0 22.593 10.135 22.593 22.593v164.501c-.001 12.457-10.137 22.592-22.594 22.592z"/></g></g></svg>