<svg id="Layer_1" enable-background="new 0 0 512.019 512.019" height="512" viewBox="0 0 512.019 512.019" width="512" xmlns="http://www.w3.org/2000/svg"><g><g clip-rule="evenodd" fill-rule="evenodd"><path d="m291.503 107.877 18.956-19.994c1.534-1.432 2.633-3.356 3.021-5.583.949-5.437-2.689-10.613-8.125-11.563l-27.169-4.813-13.438-24.719c-.9-1.653-2.276-3.072-4.061-4.024-4.854-2.589-10.888-.753-13.477 4.101l-12.972 24.351-27.368 5.086c-1.972.297-3.875 1.186-5.422 2.674-3.969 3.818-4.092 10.132-.274 14.102l19.163 19.875-3.568 27.203c-.429 2.085-.2 4.323.804 6.384 2.416 4.962 8.398 7.025 13.359 4.609l24.795-12.069 25.416 12.108c1.701.812 3.658 1.137 5.664.859 5.458-.755 9.271-5.792 8.516-11.25z" fill="#ffc144"/><path d="m129.039 116.094c1.632-4.222-.468-8.968-4.69-10.6l-24.827-9.646-9.646-24.827c-.804-2.078-2.448-3.823-4.69-4.69-4.222-1.632-8.968.468-10.6 4.69l-9.646 24.827-24.827 9.646c-2.078.804-3.823 2.448-4.69 4.69-1.632 4.222.468 8.968 4.69 10.6l24.827 9.646 9.646 24.827c.804 2.078 2.448 3.823 4.69 4.69 4.222 1.632 8.968-.468 10.6-4.69l9.646-24.827 24.827-9.646c2.078-.804 3.824-2.448 4.69-4.69z" fill="#ff764e"/><path d="m387.668 105.494c-4.222 1.632-6.322 6.378-4.69 10.6.867 2.242 2.612 3.886 4.69 4.69l24.827 9.646 9.646 24.827c1.632 4.222 6.378 6.322 10.6 4.69 2.242-.867 3.886-2.612 4.69-4.69l9.646-24.827 24.827-9.646c4.222-1.632 6.322-6.378 4.69-10.6-.867-2.242-2.612-3.886-4.69-4.69l-24.827-9.646-9.646-24.827c-1.632-4.222-6.378-6.322-10.6-4.69-2.242.867-3.886 2.611-4.69 4.69l-9.646 24.827z" fill="#ff764e"/><path d="m489.345 216.346-103.336 59.661v41.437 4.751l106.015-61.208c9.526-5.5 12.821-17.794 7.32-27.32z" fill="#5cd0b3"/><path d="m126.009 276.007-103.336-59.661-10 17.32c-5.5 9.527-2.206 21.82 7.32 27.32l106.015 61.208v-46.187z" fill="#cbe558"/><path d="m126.009 276.007v46.188 15.249l61.437-61.437z" fill="#5cd0b3"/><path d="m187.446 276.007-61.437 61.437v80l141.437-141.437z" fill="#cbe558"/><path d="m267.446 276.007-141.437 141.437v38.563c0 11 9 20 20 20h1.437l200-200z" fill="#5cd0b3"/><path d="m347.446 276.007-200 200h80l158.563-158.563v-41.437z" fill="#cbe558"/><path d="m386.009 317.444-158.563 158.563h80l78.563-78.563v-75.249z" fill="#5cd0b3"/><path d="m386.009 397.444-78.563 78.563h58.563c11 0 20-9 20-20z" fill="#cbe558"/></g><g><path d="m508.005 228.667-10-17.321c-1.326-2.297-3.51-3.973-6.072-4.659-2.563-.688-5.293-.327-7.588.999l-101.015 58.321h-254.642l-101.015-58.321c-2.297-1.326-5.025-1.685-7.588-.999-2.562.687-4.746 2.362-6.072 4.659l-9.999 17.321c-8.271 14.326-3.346 32.71 10.98 40.98l101.016 58.322v128.038c0 16.542 13.458 30 30 30h220.001c16.542 0 30-13.458 30-30v-128.038l101.016-58.321c6.92-3.996 11.876-10.467 13.954-18.222 2.075-7.756 1.019-15.839-2.976-22.759zm-256.416 237.34 124.42-124.42v51.715l-72.705 72.705zm124.42-152.705-152.705 152.705h-51.715l180-180h24.42zm-212.706-27.295-27.294 27.294v-27.294zm-138.31-33.68c-2.294-1.325-3.94-3.483-4.635-6.078s-.349-5.288.976-7.582l5-8.66 89.675 51.774v23.094zm111.016 169.259 35.972-35.972c3.905-3.905 3.905-10.237 0-14.143s-10.237-3.905-14.143 0l-21.829 21.829v-51.715l55.58-55.579h51.714l-21.826 21.826c-3.905 3.905-3.905 10.237 0 14.143 1.953 1.953 4.512 2.929 7.071 2.929s5.119-.976 7.071-2.929l35.968-35.968h51.715l-179.695 179.696c-4.356-1.08-7.598-5.011-7.598-9.696zm230 44.421h-34.42l44.42-44.42v34.42c0 5.514-4.486 10-10 10zm125.651-219.758c-.695 2.595-2.341 4.753-4.635 6.078l-91.016 52.548v-23.094l89.675-51.774 5 8.661c1.325 2.293 1.671 4.986.976 7.581z"/><path d="m209.794 110.845-2.902 22.126c-.78 4.223-.199 8.49 1.689 12.365 3.458 7.102 10.593 11.239 18.007 11.239 2.933 0 5.911-.648 8.72-2.016l20.465-9.961 21.061 10.034c3.517 1.679 7.44 2.281 11.343 1.741 10.911-1.509 18.56-11.614 17.05-22.54l-3.154-22.57 15.467-16.314c3.058-2.954 5.058-6.725 5.791-10.928.918-5.261-.267-10.564-3.337-14.934s-7.659-7.282-12.895-8.196l-22.428-3.973-11.138-20.489c-.001-.002-.002-.004-.003-.006-1.87-3.434-4.684-6.223-8.138-8.065-9.711-5.179-21.827-1.494-27.009 8.224l-10.708 20.101-22.493 4.18c-4.033.648-7.718 2.487-10.668 5.325-3.845 3.698-6.02 8.672-6.123 14.007s1.876 10.389 5.583 14.242zm-1.098-30.294 27.368-5.086c2.992-.556 5.568-2.444 6.999-5.13l12.919-24.318 13.418 24.684c1.453 2.673 4.045 4.54 7.042 5.07l27.195 4.8c-.149.139-.294.283-.434.431l-18.956 19.995c-2.094 2.208-3.068 5.25-2.647 8.264l3.845 27.318-25.417-12.108c-2.748-1.309-5.941-1.296-8.678.037l-24.787 12.084c.049-.238.089-.477.121-.718l3.568-27.203c.396-3.017-.604-6.05-2.716-8.241l-19.178-19.821c.112-.018.225-.037.338-.058z"/><path d="m246.55 183.655v46.352c0 5.523 4.477 10 10 10s10-4.477 10-10v-46.352c0-5.523-4.477-10-10-10s-10 4.477-10 10z"/><path d="m125.5 153.406c-2.762 4.783-1.123 10.899 3.66 13.66 21.264 12.277 35.182 41.918 36.353 63.483.29 5.33 4.702 9.458 9.977 9.458.183 0 .367-.005.551-.015 5.515-.299 9.742-5.013 9.443-10.528-1.476-27.176-17.862-63.286-46.324-79.718-4.781-2.762-10.898-1.122-13.66 3.66z"/><path d="m36.492 130.105 20.722 8.051 8.046 20.709c1.846 4.77 5.64 8.563 10.411 10.409 2.151.831 4.363 1.225 6.542 1.225 7.301 0 14.204-4.425 16.985-11.621l8.051-20.722 20.709-8.046c4.771-1.846 8.564-5.641 10.408-10.41 1.753-4.534 1.635-9.478-.332-13.923s-5.546-7.858-10.063-9.604l-20.722-8.051-8.048-20.712c-1.846-4.77-5.64-8.562-10.41-10.406-9.358-3.618-19.916 1.054-23.526 10.396l-8.051 20.722-20.708 8.046c-4.771 1.846-8.565 5.64-10.409 10.411-1.752 4.533-1.634 9.478.333 13.922 1.965 4.445 5.545 7.858 10.062 9.604zm32.07-24.936c2.615-1.016 4.684-3.084 5.7-5.7l7.97-20.513 7.97 20.513c1.016 2.615 3.084 4.684 5.7 5.7l20.513 7.969-20.513 7.97c-2.615 1.016-4.684 3.084-5.7 5.7l-7.97 20.513-7.97-20.513c-1.016-2.615-3.084-4.684-5.7-5.7l-20.512-7.97z"/><path d="m335.976 239.992c.185.01.368.015.551.015 5.274 0 9.687-4.128 9.977-9.458 1.171-21.564 15.089-51.206 36.353-63.483 4.783-2.761 6.422-8.877 3.66-13.66-2.761-4.784-8.878-6.422-13.66-3.66-28.462 16.432-44.848 52.542-46.324 79.718-.299 5.515 3.929 10.228 9.443 10.528z"/><path d="m384.047 130.105 20.722 8.051 8.045 20.706c2.787 7.209 9.69 11.636 16.994 11.636 2.178 0 4.392-.394 6.542-1.225 4.769-1.844 8.563-5.638 10.404-10.395l8.051-20.722 20.706-8.045c9.358-3.618 14.029-14.174 10.411-23.535-1.844-4.769-5.638-8.563-10.395-10.404l-20.722-8.051-8.044-20.706c-3.617-9.359-14.172-14.028-23.534-10.413-4.766 1.842-8.557 5.631-10.405 10.396l-8.051 20.722-20.706 8.044c-9.359 3.617-14.03 14.174-10.413 23.533 1.843 4.773 5.637 8.567 10.395 10.408zm32.07-24.936c2.615-1.016 4.684-3.084 5.7-5.7l7.97-20.513 7.969 20.513c1.016 2.615 3.084 4.684 5.7 5.7l20.513 7.969-20.513 7.97c-2.615 1.016-4.684 3.084-5.7 5.7l-7.969 20.513-7.97-20.513c-1.016-2.615-3.084-4.684-5.7-5.7l-20.513-7.97z"/><path d="m196.735 356.726c5.523 0 10-4.477 10-10s-4.477-10-10-10h-.007c-5.523 0-9.996 4.477-9.996 10s4.48 10 10.003 10z"/></g></g></svg>