<svg id="Capa_1" enable-background="new 0 0 512 512" height="512" viewBox="0 0 512 512" width="512" xmlns="http://www.w3.org/2000/svg"><g><g><g><path d="m194.921 264.882h-43.072c-18.096 0-36.001-6.025-50.418-16.964l-56.401-42.797c-26.235-19.907-36.483-54.142-25.5-85.19 10.497-29.674 38.699-49.863 70.176-50.238 30.757-.365 48.232.607 48.96.649l-1.926 33.853c-.168-.009-17.17-.944-46.631-.596-17.32.206-32.838 11.314-38.613 27.641-6.043 17.082-.405 35.918 14.03 46.871l56.4 42.797c8.555 6.492 19.182 10.067 29.921 10.067h43.072v33.907z" fill="#ffd064"/></g></g><g><g><path d="m101.431 230.054-56.401-42.797c-16.721-12.688-26.934-31.199-29.309-50.993-3.128 26.147 7.619 52.399 29.309 68.857l56.401 42.797c14.416 10.939 32.322 16.964 50.418 16.964h43.072v-17.864h-43.072c-18.096-.001-36.001-6.025-50.418-16.964z" fill="#ecbe6b"/></g></g><g><g><path d="m317.079 264.882h43.072c18.096 0 36.001-6.025 50.418-16.964l56.401-42.797c26.235-19.907 36.483-54.142 25.5-85.19-10.497-29.674-38.699-49.863-70.176-50.238-30.757-.365-48.232.607-48.96.649l1.926 33.853c.168-.009 17.17-.944 46.631-.596 17.32.206 32.838 11.314 38.613 27.641 6.043 17.082.405 35.918-14.03 46.871l-56.4 42.797c-8.555 6.492-19.182 10.067-29.921 10.067h-43.072v33.907z" fill="#ffd064"/></g></g><g><g><path d="m492.469 119.931c-4.913-13.89-13.707-25.701-24.9-34.376 4.829 6.224 8.733 13.252 11.445 20.922 10.983 31.048.735 65.283-25.5 85.19l-56.401 42.797c-14.416 10.939-32.322 16.964-50.418 16.964h-29.618v13.454h43.072c18.096 0 36.001-6.025 50.418-16.964l56.401-42.797c26.236-19.907 36.484-54.142 25.501-85.19z" fill="#ecbe6b"/></g></g><g><path d="m310.914 389.073-20.058-15.202c-8.62-6.533-13.684-16.726-13.684-27.542v-67.478h-45.429v67.478c0 10.816-5.064 21.009-13.684 27.542l-20.058 15.202c-6.252 4.738-2.901 14.707 4.943 14.707h103.026c7.845-.001 11.195-9.969 4.944-14.707z" fill="#ffd064"/></g><g><path d="m310.914 389.072-20.058-15.202c-8.62-6.533-13.684-16.726-13.684-27.542v-67.478h-23.546v67.478c0 10.816 5.064 21.009 13.684 27.542l20.058 15.202c6.252 4.738 2.901 14.707-4.943 14.707h23.546c7.844 0 11.194-9.968 4.943-14.707z" fill="#ecbe6b"/></g><g><path d="m330.808 491.632h-149.616c-4.727 0-8.558-3.832-8.558-8.558v-70.736c0-4.727 3.832-8.558 8.558-8.558h149.617c4.727 0 8.558 3.832 8.558 8.558v70.736c0 4.726-3.832 8.558-8.559 8.558z" fill="#407093"/></g><g><path d="m330.832 403.779h-16.209v54.573c0 4.714-3.821 8.535-8.535 8.535h-133.455v16.209c0 4.714 3.821 8.535 8.535 8.535h149.663c4.714 0 8.535-3.821 8.535-8.535v-70.782c.001-4.714-3.82-8.535-8.534-8.535z" fill="#365e7d"/></g><g><path d="m383.406 20.368h-254.812c-4.882 0-8.839 3.957-8.839 8.839v91.245c0 39.067 10.878 77.362 31.416 110.595l23.53 38.074c36.878 59.673 123.521 60.08 160.959.757l24.122-38.224c21.208-33.607 32.464-72.533 32.464-112.272v-90.175c-.001-4.881-3.958-8.839-8.84-8.839z" fill="#ffe07d"/></g><g><path d="m383.406 20.368h-40.843v49.332c0 39.739-11.256 78.666-32.464 112.273l-24.122 38.224c-26.707 42.32-78.451 54.233-119.31 35.927l8.033 12.998c36.878 59.673 123.521 60.081 160.959.757l24.122-38.224c21.208-33.607 32.464-72.533 32.464-112.272v-90.176c.001-4.881-3.957-8.839-8.839-8.839z" fill="#ffd064"/></g><g><path d="m495.365 293.476c-8.169 19.334-22.096 31.921-31.108 28.113s-9.696-22.568-1.527-41.902c5.918-14.007 25.42-36.275 35.717-47.483 2.224-2.421 6.253-.719 6.067 2.563-.858 15.197-3.231 44.702-9.149 58.709z" fill="#aad880"/></g><g><path d="m498.447 232.205c-2.856 3.109-6.422 7.07-10.208 11.469-1.354 14.906-3.768 32.672-7.971 42.622-5.755 13.62-14.366 23.882-22.105 27.433 1.157 3.85 3.191 6.634 6.094 7.861 9.012 3.808 22.94-8.779 31.108-28.113 5.918-14.007 8.291-43.512 9.149-58.708.185-3.283-3.843-4.985-6.067-2.564z" fill="#80cb8e"/></g><g><path d="m440.647 336.462c.614 19.816-6.376 36.111-15.612 36.398s-17.222-15.546-17.836-35.361c-.445-14.356 7.511-41.16 11.929-54.84.954-2.955 5.083-3.083 6.218-.193 5.256 13.38 14.856 39.64 15.301 53.996z" fill="#aad880"/></g><g><path d="m384.79 375.614c7.808 18.223 7.252 35.946-1.242 39.585s-21.709-8.183-29.517-26.406c-5.657-13.202-8.038-41.06-8.922-55.409-.191-3.099 3.606-4.726 5.719-2.45 9.779 10.538 28.305 31.478 33.962 44.68z" fill="#aad880"/></g><g><path d="m384.79 375.614c-5.657-13.202-24.183-34.142-33.963-44.679-2.112-2.276-5.909-.649-5.719 2.45.252 4.102.628 9.309 1.167 14.96 9.131 10.58 19.331 23.545 23.275 32.751 5.469 12.764 6.829 25.276 4.237 32.882 3.529 1.917 6.911 2.443 9.76 1.222 8.494-3.64 9.051-21.363 1.243-39.586z" fill="#80cb8e"/></g><g><path d="m434.586 418.06c-18.72-6.527-31.429-18.892-28.387-27.617 3.042-8.726 20.684-10.508 39.404-3.981 13.562 4.729 35.735 21.76 46.924 30.786 2.417 1.95 1.057 5.85-2.048 5.874-14.376.113-42.331-.334-55.893-5.062z" fill="#aad880"/></g><g><path d="m375.13 458.943c-18.72-6.527-31.429-18.892-28.387-27.617s20.684-10.508 39.404-3.981c13.562 4.729 35.735 21.76 46.924 30.786 2.417 1.95 1.057 5.85-2.048 5.874-14.375.113-42.331-.333-55.893-5.062z" fill="#aad880"/></g><g><path d="m492.527 417.247c-4.547-3.668-10.907-8.658-17.767-13.607-15.111-.021-39.246-.788-51.544-5.076-6.478-2.259-12.235-5.217-16.87-8.481-.049.12-.105.236-.147.359-3.042 8.726 9.667 21.09 28.387 27.617 13.562 4.729 41.518 5.175 55.893 5.062 3.105-.024 4.465-3.924 2.048-5.874z" fill="#80cb8e"/></g><g><path d="m433.071 458.131c-4.547-3.668-10.907-8.658-17.767-13.607-15.111-.021-39.246-.788-51.544-5.076-6.478-2.259-12.235-5.217-16.87-8.481-.049.12-.105.236-.148.359-3.042 8.726 9.667 21.09 28.387 27.617 13.562 4.729 41.518 5.175 55.893 5.062 3.106-.024 4.466-3.924 2.049-5.874z" fill="#80cb8e"/></g><g><path d="m16.635 293.476c8.169 19.334 22.096 31.921 31.108 28.113s9.696-22.568 1.527-41.902c-5.918-14.007-25.42-36.275-35.717-47.483-2.224-2.421-6.253-.719-6.067 2.563.858 15.197 3.231 44.702 9.149 58.709z" fill="#aad880"/></g><g><path d="m49.271 279.688c-5.918-14.007-25.42-36.275-35.717-47.483-2.224-2.421-6.253-.719-6.067 2.563.239 4.233.596 9.578 1.114 15.388 9.888 11.478 21.322 25.977 25.613 36.134 5.657 13.389 7.065 26.499 4.405 34.562 3.291 1.538 6.428 1.876 9.125.737 9.012-3.807 9.695-22.567 1.527-41.901z" fill="#80cb8e"/></g><g><path d="m71.353 336.462c-.614 19.816 6.376 36.111 15.612 36.398s17.222-15.546 17.836-35.361c.445-14.356-7.511-41.16-11.929-54.84-.954-2.955-5.083-3.083-6.218-.193-5.256 13.38-14.856 39.64-15.301 53.996z" fill="#aad880"/></g><g><path d="m440.647 336.462c-.445-14.356-10.045-40.616-15.301-53.996-1.135-2.89-5.264-2.762-6.218.193-1.301 4.027-2.908 9.196-4.517 14.846 4.633 13.177 9.387 28.956 9.697 38.958.423 13.637-2.756 25.606-7.79 31.838 2.557 2.983 5.467 4.654 8.517 4.56 9.236-.288 16.226-16.584 15.612-36.399z" fill="#80cb8e"/></g><g><path d="m92.873 282.658c-.954-2.955-5.083-3.083-6.218-.193-1.594 4.058-3.588 9.303-5.604 15.038 3.857 13.541 7.726 29.865 7.412 39.994-.411 13.273-4.132 24.75-9.319 30.802 2.281 2.824 4.942 4.47 7.822 4.56 9.236.286 17.222-15.546 17.836-35.361.444-14.356-7.512-41.16-11.929-54.84z" fill="#80cb8e"/></g><g><path d="m127.21 375.614c-7.808 18.223-7.252 35.946 1.242 39.585s21.709-8.183 29.517-26.406c5.657-13.202 8.038-41.06 8.922-55.409.191-3.099-3.606-4.726-5.719-2.45-9.779 10.538-28.305 31.478-33.962 44.68z" fill="#aad880"/></g><g><path d="m161.173 330.935c-3.051 3.287-6.954 7.588-11.052 12.35-1.37 13.776-3.711 29.775-7.599 38.849-5.221 12.186-12.86 21.502-19.889 25.253 1.053 3.827 2.995 6.602 5.82 7.812 8.494 3.639 21.709-8.183 29.517-26.406 5.657-13.202 8.038-41.06 8.922-55.409.19-3.098-3.607-4.725-5.719-2.449z" fill="#80cb8e"/></g><g><path d="m77.415 418.06c18.72-6.527 31.429-18.892 28.387-27.617-3.042-8.726-20.684-10.508-39.404-3.981-13.562 4.729-35.735 21.76-46.924 30.786-2.417 1.95-1.057 5.85 2.048 5.874 14.375.113 42.33-.334 55.893-5.062z" fill="#aad880"/></g><g><path d="m136.87 458.943c18.72-6.527 31.429-18.892 28.387-27.617s-20.684-10.508-39.404-3.981c-13.562 4.729-35.735 21.76-46.924 30.786-2.417 1.95-1.057 5.85 2.048 5.874 14.375.113 42.331-.333 55.893-5.062z" fill="#aad880"/></g><g><path d="m105.801 390.442c-1.245-3.572-4.94-5.978-10.15-7.13-2.874 7.606-13.696 16.061-28.073 21.074-9.009 3.141-24.366 4.392-37.878 4.845-3.897 2.963-7.411 5.743-10.227 8.016-2.417 1.95-1.057 5.85 2.048 5.874 14.375.113 42.331-.334 55.893-5.062 18.721-6.526 31.43-18.891 28.387-27.617z" fill="#80cb8e"/></g><g><path d="m165.257 431.326c-1.245-3.572-4.94-5.978-10.15-7.13-2.874 7.606-13.696 16.061-28.073 21.074-9.009 3.141-24.366 4.392-37.878 4.845-3.897 2.963-7.411 5.743-10.227 8.016-2.417 1.949-1.057 5.85 2.048 5.874 14.375.113 42.331-.334 55.893-5.062 18.72-6.527 31.43-18.891 28.387-27.617z" fill="#80cb8e"/></g><g><circle cx="253.626" cy="149.382" fill="#ffd064" r="57.658"/></g><g><path d="m275.093 95.87c2.665 6.637 4.146 13.877 4.146 21.467 0 31.844-25.814 57.658-57.658 57.658-7.59 0-14.83-1.481-21.467-4.146 8.516 21.209 29.258 36.192 53.512 36.192 31.844 0 57.658-25.814 57.658-57.658 0-24.255-14.983-44.997-36.191-53.513z" fill="#ecbe6b"/></g><g><path d="m257.835 123.739 6.037 12.231c.549 1.111 1.609 1.882 2.836 2.06l13.498 1.961c3.089.449 4.322 4.245 2.087 6.424l-9.767 9.521c-.888.865-1.293 2.112-1.083 3.333l2.306 13.444c.528 3.076-2.701 5.422-5.464 3.97l-12.073-6.347c-1.097-.577-2.408-.577-3.505 0l-12.073 6.347c-2.763 1.452-5.992-.894-5.464-3.97l2.306-13.444c.21-1.222-.195-2.468-1.083-3.333l-9.767-9.521c-2.235-2.179-1.002-5.975 2.087-6.424l13.498-1.961c1.227-.178 2.287-.949 2.836-2.06l6.037-12.231c1.378-2.799 5.369-2.799 6.751 0z" fill="#ffe07d"/></g><g><g><path d="m282.292 146.416c2.235-2.179 1.002-5.975-2.087-6.424l-4.921-.715-13.117 12.786c-1.315 1.281-1.914 3.127-1.604 4.936l2.946 17.174 4.775 2.51c2.763 1.452 5.992-.894 5.464-3.97l-2.306-13.444c-.21-1.222.195-2.468 1.083-3.333z" fill="#ffd064"/></g></g><g><path d="m505.296 224.459c-4.326-1.828-9.178-.775-12.357 2.686-13.622 14.826-31.116 35.471-37.1 49.632-7.795 18.45-8.321 35.43-2.224 45.015-1.868 3.394-3.813 6.748-5.844 10.051-1.691-14.712-9.154-36.051-15.463-52.112-1.689-4.296-5.791-6.987-10.37-6.836-4.612.143-8.509 3.073-9.927 7.466-5.855 18.13-12.739 42.8-12.287 57.37.532 17.205 5.74 31.024 13.473 37.89-.342.341-.68.69-1.023 1.029-6.473 2.021-11.125 5.848-13.037 11.331-.092.263-.163.528-.241.793-.623.525-1.251 1.047-1.881 1.567-.951-5.566-2.72-11.534-5.349-17.671-5.742-13.402-22.396-32.859-35.356-46.822-3.139-3.383-7.911-4.395-12.151-2.577-4.241 1.817-6.799 5.969-6.514 10.576 1.17 19.015 3.771 44.494 9.512 57.894 4.027 9.398 9.154 17.077 14.687 22.517-1.35.743-2.704 1.473-4.062 2.184-4.743.71-8.285 2.094-10.933 3.757v-7.883c0-8.83-7.185-16.015-16.015-16.015h-9.202c.267-5.074-1.943-9.962-6.198-13.188l-20.057-15.202c-6.714-5.088-10.723-13.156-10.723-21.58v-28.934c23.446-6.927 43.831-22.13 57.333-43.525l.952-1.509h17.214c19.719 0 39.23-6.565 54.938-18.485l56.401-42.797c28.838-21.882 40.103-59.515 28.03-93.643-11.538-32.619-42.537-54.811-77.138-55.223-7.812-.092-15.405-.105-22.657-.042v-32.966c0-8.998-7.321-16.318-16.319-16.318h-181.456c-4.131 0-7.48 3.349-7.48 7.48s3.348 7.48 7.48 7.48h181.455c.75 0 1.36.61 1.36 1.359v90.175c0 38.381-10.827 75.824-31.31 108.281l-24.122 38.223c-16.12 25.545-43.724 40.759-73.906 40.759-.14 0-.281 0-.423-.001-30.346-.143-57.988-15.64-73.942-41.455l-23.53-38.074c-19.822-32.074-30.299-68.958-30.299-106.662v-91.247c0-.749.61-1.359 1.36-1.359h38.305c4.131 0 7.48-3.349 7.48-7.48s-3.348-7.48-7.48-7.48h-38.305c-8.998 0-16.319 7.32-16.319 16.318v32.964c-7.246-.064-14.838-.05-22.657.043-34.601.412-65.601 22.604-77.138 55.223-12.073 34.128-.808 71.76 28.03 93.643l56.401 42.797c15.708 11.92 35.219 18.485 54.938 18.485h16.061l.428.692c13.112 21.216 32.968 36.469 55.926 43.746v29.529c0 8.424-4.009 16.492-10.723 21.581l-20.058 15.202c-4.255 3.225-6.466 8.114-6.198 13.188h-6.117c-8.83 0-16.015 7.185-16.015 16.015v7.883c-2.651-1.665-6.197-3.05-10.947-3.759-1.353-.708-2.703-1.44-4.051-2.181 5.534-5.44 10.662-13.12 14.688-22.518 5.741-13.4 8.342-38.879 9.512-57.894.284-4.607-2.273-8.758-6.514-10.576-4.242-1.817-9.011-.806-12.151 2.577-12.959 13.961-29.612 33.418-35.356 46.821-2.63 6.137-4.399 12.107-5.35 17.674-.631-.521-1.258-1.047-1.882-1.574-.077-.263-.148-.527-.239-.789-1.912-5.484-6.564-9.31-13.037-11.332-.343-.338-.68-.688-1.022-1.029 7.731-6.867 12.939-20.687 13.472-37.889.452-14.57-6.432-39.24-12.287-57.37-1.418-4.392-5.315-7.322-9.927-7.465-4.578-.153-8.682 2.54-10.37 6.837-6.31 16.063-13.775 37.407-15.464 52.119-2.032-3.304-3.975-6.662-5.844-10.058 6.097-9.585 5.571-26.565-2.225-45.016-5.983-14.161-23.477-34.806-37.099-49.632-3.179-3.46-8.03-4.516-12.357-2.686-4.327 1.829-6.952 6.042-6.686 10.731 1.136 20.103 3.745 47.038 9.727 61.197 8.685 20.556 22.351 33.383 34.5 33.383.474 0 .945-.029 1.414-.068 6.204 11.189 13.26 21.947 21.025 32.026.291.377.617.708.96 1.014 2.129 5.729 5.075 10.302 8.639 13.351-3.968.733-8.107 1.825-12.351 3.305-13.767 4.801-34.331 20.067-49.157 32.027-3.593 2.898-4.933 7.586-3.414 11.944 1.964 6.159 8.302 7.807 14.14 7.248 18.494 0 41.561-1.027 54.373-5.495h.001c13.781-4.805 24.227-12.089 29.668-19.945 1.965 1.554 3.949 3.078 5.944 4.558 1.373 4.686 3.8 8.403 7.24 10.788-13.755 5.045-33.903 20.012-48.499 31.786-3.592 2.899-4.931 7.587-3.412 11.944 1.964 6.159 8.303 7.806 14.139 7.247 18.494 0 41.562-1.027 54.373-5.495 10.063-3.509 18.98-8.724 25.108-14.686.246-.239.48-.477.713-.714v32.49c0 8.83 7.185 16.015 16.015 16.015h95.509c4.131 0 7.48-3.349 7.48-7.48s-3.348-7.48-7.48-7.48h-95.509c-.582 0-1.056-.474-1.056-1.056v-70.782c0-.582.473-1.056 1.056-1.056h149.663c.582 0 1.056.474 1.056 1.056v70.782c0 .582-.473 1.056-1.056 1.056h-18.065c-4.131 0-7.48 3.349-7.48 7.48s3.348 7.48 7.48 7.48h18.065c8.83 0 16.015-7.185 16.015-16.015v-32.49c.233.237.467.475.713.714 6.128 5.962 15.045 11.177 25.108 14.686h-.001c12.814 4.468 35.88 5.495 54.374 5.495 5.836.56 12.178-1.09 14.139-7.247 1.519-4.357.18-9.045-3.413-11.944-14.595-11.773-34.743-26.741-48.497-31.785 3.441-2.387 5.869-6.107 7.242-10.797 1.996-1.481 3.982-2.995 5.944-4.546 5.442 7.855 15.887 15.137 29.666 19.942h.001c12.814 4.468 35.88 5.495 54.373 5.495 5.836.56 12.179-1.091 14.14-7.248 1.519-4.357.179-9.045-3.414-11.943-14.826-11.961-35.39-27.227-49.158-32.028-4.243-1.479-8.382-2.572-12.35-3.305 3.476-2.974 6.361-7.4 8.477-12.931.026-.033.057-.061.083-.094 8.182-10.473 15.585-21.682 22.063-33.366.47.039.942.068 1.417.068 12.149 0 25.814-12.827 34.5-33.383 5.983-14.159 8.592-41.094 9.727-61.196.271-4.69-2.353-8.903-6.68-10.731zm-140.853 13.824c10.875-.835 21.444-4.812 30.15-11.418l22.652-17.189c3.291-2.497 3.935-7.189 1.437-10.48-2.496-3.29-7.186-3.934-10.479-1.437l-22.652 17.189c-3.328 2.525-7.028 4.523-10.934 5.955 16.465-31.239 25.107-66.004 25.107-101.521v-8.336c7.076-.067 14.468-.059 22.076.031 14.198.169 26.917 9.274 31.651 22.657 4.953 14.001.331 29.44-11.5 38.418l-8.092 6.141c-3.291 2.497-3.935 7.189-1.438 10.48 1.472 1.939 3.704 2.959 5.964 2.959 1.575 0 3.164-.496 4.515-1.522l8.092-6.14c17.039-12.928 23.693-35.161 16.56-55.323-6.816-19.271-25.132-32.382-45.575-32.626-7.664-.091-15.117-.1-22.254-.033v-18.956c7.188-.064 14.72-.052 22.48.041 28.354.338 53.758 18.524 63.213 45.253 9.893 27.967.662 58.806-22.97 76.738l-56.401 42.797c-13.123 9.958-29.423 15.442-45.896 15.442h-7.774zm-227.761-17.652c-3.659-1.414-7.123-3.322-10.233-5.682l-56.4-42.797c-11.831-8.977-16.453-24.416-11.5-38.418 4.734-13.382 17.453-22.487 31.65-22.656 7.607-.09 14.999-.097 22.077-.03v9.405c-.001 34.972 8.4 69.282 24.406 100.178zm15.167 36.771c-16.474 0-32.773-5.484-45.896-15.442l-56.401-42.797c-23.632-17.932-32.863-48.77-22.97-76.738 9.456-26.729 34.859-44.915 63.213-45.253 7.765-.092 15.298-.105 22.48-.041v18.956c-7.142-.067-14.593-.059-22.255.032-20.442.244-38.758 13.355-45.574 32.625-7.133 20.163-.478 42.396 16.56 55.324l56.4 42.797c8.451 6.413 18.807 10.394 29.405 11.355l11.854 19.182zm-17.764 121.157c3.131-7.306 11.861-19.25 24.442-33.55-1.676 18.974-4.303 33.534-7.432 40.839-7.343 17.136-17.517 23.41-19.696 22.476-2.187-.937-4.658-12.625 2.686-29.765zm-55.256-41.866c.246-7.943 4.012-22.25 10.502-40.158 5.369 18.276 8.241 32.789 7.995 40.731-.576 18.567-7.697 28.118-10.1 28.117-.009 0-.019 0-.027 0-2.377-.073-8.946-10.052-8.37-28.69zm-55.304-46.128c-3.363-7.959-6.123-23.944-7.79-44.737 13.746 15.688 23.283 28.81 26.646 36.77 7.716 18.264 5.188 30.945 2.452 32.101-2.737 1.153-13.59-5.871-21.308-24.134zm51.427 120.432c-7.504 2.617-22.208 4.228-41.255 4.586 15.137-11.561 27.657-19.442 35.162-22.059 7.526-2.624 13.933-3.527 18.865-3.527 6.607 0 10.567 1.623 11.015 2.909.783 2.244-6.18 11.952-23.787 18.091zm79.057 29.601c-4.529 4.406-11.673 8.518-19.601 11.282h-.001c-7.503 2.617-22.209 4.228-41.254 4.586 15.138-11.561 27.659-19.443 35.163-22.059 7.946-2.679 15.073-3.965 22.366-3.35 5.088.514 7.29 2.091 7.513 2.731s-.52 3.245-4.186 6.81zm48.268-44.779c-.162-.48.054-.642.242-.786l20.058-15.202c10.423-7.9 16.646-20.424 16.646-33.502v-25.998c5.144.811 10.391 1.248 15.712 1.273.168 0 .328.001.495.001 4.82 0 9.581-.343 14.263-.992v25.716c0 13.079 6.223 25.604 16.646 33.502l20.057 15.202c.189.144.404.306.243.786-.162.48-.43.48-.667.48h-103.027c-.238 0-.507 0-.668-.48zm220.392-99.284c6.49 17.908 10.255 32.215 10.502 40.158.577 18.638-5.992 28.617-8.369 28.69-.009 0-.018 0-.027 0-2.404 0-9.525-9.552-10.1-28.118-.247-7.941 2.625-22.454 7.994-40.73zm-61.764 89.313c-3.129-7.305-5.756-21.865-7.432-40.839 12.582 14.3 21.312 26.245 24.442 33.55 7.343 17.14 4.872 28.828 2.686 29.765-2.178.94-12.354-5.341-19.696-22.476zm16.688 66.032c-7.929-2.764-15.073-6.876-19.602-11.282-3.666-3.565-4.409-6.169-4.186-6.81s2.425-2.217 7.513-2.731c7.29-.615 14.424.672 22.367 3.35 7.503 2.616 20.024 10.498 35.162 22.059-19.042-.357-33.751-1.969-41.254-4.586zm100.71-36.298c-19.044-.357-33.751-1.969-41.256-4.586h.001c-17.607-6.139-24.57-15.847-23.787-18.092.782-2.246 12.272-5.521 29.879.619 7.506 2.617 20.025 10.499 35.163 22.059zm10.172-125.017c-7.715 18.26-18.558 25.298-21.308 24.134-2.736-1.156-5.264-13.837 2.451-32.101 3.364-7.96 12.901-21.082 26.647-36.77-1.667 20.792-4.427 36.778-7.79 44.737z"/><path d="m253.626 214.52c35.917 0 65.138-29.221 65.138-65.138s-29.221-65.138-65.138-65.138-65.138 29.221-65.138 65.138 29.221 65.138 65.138 65.138zm0-115.317c27.669 0 50.179 22.51 50.179 50.179s-22.51 50.179-50.179 50.179-50.179-22.51-50.179-50.179 22.51-50.179 50.179-50.179z"/><path d="m229.772 159.93-1.976 11.519c-.729 4.25.985 8.464 4.473 10.999s8.025 2.863 11.844.857l10.345-5.439 10.344 5.438c3.801 2.001 8.346 1.686 11.844-.856 3.489-2.535 5.203-6.749 4.474-10.998l-1.976-11.52 8.37-8.158c3.087-3.009 4.177-7.427 2.846-11.527-1.332-4.101-4.811-7.034-9.079-7.654l-11.566-1.681-5.172-10.481c-1.908-3.866-5.771-6.268-10.082-6.269-.001 0-.001 0-.002 0-4.311 0-8.176 2.402-10.085 6.269l-5.172 10.481-11.566 1.681c-4.267.62-7.745 3.553-9.078 7.653-1.332 4.101-.242 8.518 2.846 11.528zm13.511-14.497c3.665-.533 6.831-2.833 8.468-6.152l2.706-5.484 2.707 5.487c1.639 3.319 4.804 5.617 8.466 6.149l6.052.879-4.378 4.267c-2.652 2.583-3.862 6.305-3.236 9.955l1.034 6.028-5.411-2.844c-1.639-.862-3.436-1.293-5.235-1.293-1.797 0-3.595.43-5.234 1.292l-5.412 2.846 1.034-6.028c.624-3.647-.583-7.368-3.234-9.953l-4.38-4.269z"/></g></g></svg>