<svg id="Layer_1" enable-background="new 0 0 512.013 512.013" height="512" viewBox="0 0 512.013 512.013" width="512" xmlns="http://www.w3.org/2000/svg"><g><g clip-rule="evenodd" fill-rule="evenodd"><path d="m238.155 441.69c15.073-75.339-57.144-111.405-77.76-143.127-4.855-7.469-33.424-53.457-38.279-60.927-5.066-7.794-15.534-10.027-23.262-4.959-2.154 1.413-3.677 3.158-4.699 5.136l-38.552-82.533c-12.151-24.873-40.902-11.047-33.35 10.935 5.325 15.005 25.328 85.643 40.931 132.823 11.224 33.936 16.218 42.93 39.3 69.742l35.088 40.76-1.603 32.151h102.186z" fill="#ffdcd5"/><path d="m351.619 298.563c-20.616 31.722-92.833 67.788-77.76 143.127h102.186l-1.603-32.151 35.088-40.76c23.081-26.812 28.076-35.806 39.3-69.742 15.603-47.18 35.606-117.818 40.932-132.823 7.552-21.982-21.199-35.808-33.35-10.935l-38.551 82.533c-1.022-1.978-2.545-3.724-4.699-5.136-7.728-5.068-18.196-2.835-23.263 4.959-4.857 7.471-33.426 53.459-38.28 60.928z" fill="#ffdcd5"/><path d="m376.045 441.69h-102.186-17.852v60.323h139.978v-60.323z" fill="#8481e2"/><path d="m256.007 502.013v-60.323h-17.852-102.186-19.94v60.323z" fill="#8481e2"/><path d="m255.441 205.474 50.958 24.276c3.41 1.628 7.333 2.28 11.356 1.723 10.943-1.513 18.587-11.613 17.074-22.556l-7.659-54.812 38.006-40.088c3.076-2.871 5.278-6.728 6.057-11.193 1.903-10.9-5.39-21.279-16.29-23.182l-54.473-9.65-26.942-49.561c-1.805-3.315-4.564-6.159-8.143-8.068-9.732-5.191-21.829-1.509-27.02 8.223l-26.009 48.823-54.871 10.197c-3.955.594-7.77 2.378-10.871 5.361-7.958 7.655-8.204 20.314-.548 28.272l38.421 39.849-7.154 54.54c-.861 4.181-.401 8.667 1.612 12.8 4.844 9.948 16.837 14.085 26.785 9.242z" fill="#ffc144"/></g><g><path d="m484.505 134.021c-11.55-4.783-28.081-1.548-37.079 16.869-.025.053-.051.104-.075.157l-33.128 70.923c-4.92-2.044-10.351-2.559-15.696-1.435-7.051 1.48-13.093 5.619-17.013 11.65-2.477 3.811-10.622 16.839-19.247 30.632-8.188 13.096-16.654 26.637-19.032 30.296-4.892 7.526-13.957 16.181-23.555 25.342-26.617 25.409-62.478 59.648-57.393 113.235h-12.562c2.333-24.498-3.653-47.277-18.198-69.37-3.038-4.613-9.239-5.889-13.852-2.854-4.612 3.037-5.891 9.238-2.854 13.852 12.457 18.923 17.202 37.615 14.781 58.372h-83.124l1.08-21.653c.128-2.563-.734-5.077-2.408-7.022l-35.088-40.76c-22.023-25.582-26.565-33.645-37.385-66.356-8.878-26.844-19.165-61.246-27.431-88.889-6.243-20.88-11.179-37.385-13.551-44.083-1.981-5.816.626-9.252 3.467-10.429 4.06-1.687 8.433 1.035 11.419 7.099l36.756 78.688c-1.339 5.217-1.338 11.903 1.04 20.459 6.859 24.676 15.915 49.621 24.845 68.439 2.366 4.99 8.329 7.115 13.321 4.747 4.989-2.367 7.115-8.331 4.747-13.321-8.459-17.828-17.077-41.602-23.644-65.222-1.855-6.677-1.624-10.831.69-12.348 1.482-.972 3.271-1.302 5.039-.931 1.807.38 3.353 1.437 4.354 2.978 4.996 7.686 9.861 15.802 15.014 24.395 8.173 13.633 16.625 27.73 25.63 39.935 3.279 4.443 9.539 5.389 13.984 2.109 4.444-3.279 5.389-9.54 2.109-13.984-8.438-11.434-16.639-25.114-24.57-38.344-5.017-8.368-10.204-17.021-15.397-25.01-3.92-6.032-9.962-10.171-17.013-11.651-5.348-1.124-10.777-.609-15.696 1.435l-33.128-70.923c-.024-.053-.05-.104-.075-.157-8.997-18.415-25.527-21.653-37.078-16.869-11.698 4.844-20.509 18.574-14.713 35.442.011.032.021.063.033.096 2.195 6.187 7.321 23.33 13.257 43.18 8.303 27.767 18.636 62.322 27.604 89.438 11.659 35.253 17.437 45.504 41.215 73.126l32.48 37.729-.93 18.657h-10.426c-5.522 0-10 4.478-10 10v60.322c0 5.522 4.478 10 10 10h279.956c5.522 0 10-4.478 10-10v-60.322c0-5.522-4.478-10-10-10h-10.426l-.93-18.657 32.48-37.729c23.778-27.622 29.556-37.873 41.214-73.125 8.971-27.122 19.305-61.683 27.608-89.452 5.934-19.844 11.059-36.982 13.253-43.167.012-.032.022-.063.033-.095 5.796-16.868-3.014-30.598-14.712-35.444zm-358.476 317.67h119.978v40.322h-119.978zm259.956 40.322h-119.979v-40.322h119.979zm94.331-329.086c-2.371 6.697-7.305 23.196-13.547 44.07-8.267 27.646-18.555 62.054-27.435 88.901-10.818 32.712-15.36 40.774-37.384 66.356l-35.088 40.76c-1.674 1.945-2.536 4.459-2.408 7.022l1.08 21.653h-83.141c-5.194-45.034 24.633-73.507 51.096-98.769 10.465-9.99 20.351-19.427 26.514-28.909 2.474-3.807 10.608-16.817 19.222-30.592 8.198-13.113 16.677-26.672 19.058-30.336 1.001-1.54 2.547-2.597 4.354-2.977 1.767-.371 3.558-.042 5.04.931 2.313 1.517 2.545 5.671.688 12.348-6.564 23.619-15.183 47.392-23.643 65.222-2.368 4.99-.242 10.954 4.747 13.321 4.992 2.37 10.955.243 13.321-4.747 8.931-18.82 17.985-43.766 24.844-68.439 2.379-8.557 2.381-15.242 1.042-20.459l36.754-78.687c2.985-6.063 7.355-8.782 11.42-7.1 2.841 1.179 5.448 4.615 3.466 10.431z"/><path d="m173.944 156.565-6.484 49.439c-1.236 6.419-.377 12.913 2.493 18.804 5.195 10.669 15.914 16.885 27.052 16.884 4.406 0 8.88-.974 13.101-3.028l45.382-22.091 46.604 22.202c5.269 2.516 11.16 3.42 17.034 2.604 7.938-1.098 14.975-5.222 19.812-11.612s6.896-14.281 5.796-22.233l-6.993-50.043 34.503-36.393c4.673-4.457 7.728-10.174 8.842-16.553 1.379-7.903-.401-15.871-5.014-22.435s-11.506-10.939-19.385-12.314l-49.731-8.81-24.642-45.33c-.001-.001-.002-.003-.003-.005-2.807-5.156-7.033-9.344-12.221-12.11-7.063-3.768-15.172-4.561-22.83-2.228-7.659 2.331-13.952 7.505-17.722 14.572l-23.744 44.572-49.983 9.289c-6.097.956-11.672 3.725-16.13 8.015-5.774 5.554-9.04 13.024-9.195 21.035s2.817 15.603 8.38 21.386zm-20.397-64.39c1.501-1.444 3.377-2.371 5.425-2.679.113-.017.227-.036.34-.057l54.871-10.197c2.992-.557 5.567-2.444 6.999-5.13l26.006-48.818c1.254-2.351 3.348-4.071 5.896-4.847.959-.293 1.94-.438 2.916-.438 1.614 0 3.214.396 4.68 1.179 1.727.921 3.132 2.312 4.063 4.021l26.942 49.561c1.454 2.673 4.046 4.54 7.042 5.07l54.497 9.654c2.641.46 4.943 1.922 6.484 4.115s2.136 4.855 1.676 7.496c-.379 2.168-1.427 4.104-3.03 5.602-.148.139-.294.282-.434.431l-38.006 40.087c-2.094 2.208-3.068 5.25-2.647 8.264l7.658 54.799c.756 5.465-3.074 10.525-8.536 11.28-1.988.276-3.952-.017-5.688-.846l-50.959-24.276c-2.747-1.308-5.942-1.296-8.678.037l-49.713 24.198c-4.974 2.424-10.993.345-13.417-4.631-.978-2.007-1.257-4.221-.808-6.402.05-.237.09-.477.121-.717l7.153-54.54c.396-3.018-.604-6.051-2.716-8.242l-38.413-39.84c-1.851-1.924-2.842-4.454-2.79-7.124.052-2.669 1.14-5.158 3.066-7.01z"/><path d="m244.921 158.23c-5.522 0-10 4.478-10 10s4.478 10 10 10h22.173c5.522 0 10-4.478 10-10s-4.478-10-10-10h-1.087v-69.999c0-3.572-1.906-6.874-5-8.66-3.094-1.787-6.906-1.787-10 0l-11.086 6.4c-4.783 2.762-6.422 8.877-3.66 13.66 2.044 3.54 5.926 5.359 9.746 4.943v53.655h-1.086z"/><path d="m193.789 323.737c-5.522 0-9.996 4.478-9.996 10s4.48 10 10.003 10 10-4.478 10-10-4.478-10-10-10z"/></g></g></svg>